<!-- Created with Inkscape (http://www.inkscape.org/) -->
<svg width="12.7mm" height="12.7mm" version="1.1" viewBox="0 0 12.7 12.7" xmlns="http://www.w3.org/2000/svg" xmlns:cc="http://creativecommons.org/ns#" xmlns:dc="http://purl.org/dc/elements/1.1/" xmlns:rdf="http://www.w3.org/1999/02/22-rdf-syntax-ns#">
 <metadata>
  <rdf:RDF>
   <cc:Work rdf:about="">
    <dc:format>image/svg+xml</dc:format>
    <dc:type rdf:resource="http://purl.org/dc/dcmitype/StillImage"/>
    <dc:title/>
   </cc:Work>
  </rdf:RDF>
 </metadata>
 <g transform="translate(-98.727 -103.17)">
  <g transform="matrix(.29398 0 0 .29398 98.404 102.76)">
   <circle cx="22.7" cy="23" r="21.6" style="fill:#0050a0"/>
  </g>
  <g transform="matrix(.34298 0 0 .34298 97.296 101.64)">
   <rect x="9" y="13.8" width="27.2" height="18.4" style="fill:#fff"/>
   <path d="m36.3 32.8h-27.3c-0.4 0-0.7-0.3-0.7-0.7v-18.3c0-0.4 0.3-0.7 0.7-0.7h27.2c0.4 0 0.7 0.3 0.7 0.7v18.4c0 0.3-0.3 0.6-0.6 0.6zm-26.6-1.3h25.9v-17h-25.9z" style="fill:#0050a0"/>
   <g style="fill:#0050a0">
    <path d="m22.7 25.6c-0.9 0-1.8-0.3-2.5-1l-11.6-10.3c-0.2-0.2-0.3-0.5-0.2-0.7 0.1-0.3 0.3-0.4 0.6-0.4h27.2c0.3 0 0.5 0.2 0.6 0.4 0.1 0.3 0 0.6-0.2 0.7l-11.4 10.3c-0.8 0.7-1.7 1-2.5 1zm-11.9-11.1 10.2 9.1c0.9 0.8 2.3 0.8 3.2 0l10.2-9.2h-23.6z" style="fill:#0050a0"/>
   </g>
   <g style="fill:#0050a0">
    <path d="m36.3 32.7h-27.3c-0.3 0-0.5-0.2-0.6-0.4-0.1-0.3 0-0.6 0.2-0.7l10.1-9.1c0.3-0.2 0.7-0.2 1 0.1 0.2 0.3 0.2 0.7-0.1 1l-8.8 7.9h23.7l-8.8-7.9c-0.3-0.2-0.3-0.7-0.1-1s0.7-0.3 1-0.1l10.1 9.1c0.2 0.2 0.3 0.5 0.2 0.7s-0.4 0.4-0.6 0.4z" style="fill:#0050a0"/>
   </g>
  </g>
 </g>
</svg>
