<!-- Created with Inkscape (http://www.inkscape.org/) -->
<svg width="12.7mm" height="12.7mm" version="1.1" viewBox="0 0 12.7 12.7" xmlns="http://www.w3.org/2000/svg" xmlns:cc="http://creativecommons.org/ns#" xmlns:dc="http://purl.org/dc/elements/1.1/" xmlns:rdf="http://www.w3.org/1999/02/22-rdf-syntax-ns#">
 <metadata>
  <rdf:RDF>
   <cc:Work rdf:about="">
    <dc:format>image/svg+xml</dc:format>
    <dc:type rdf:resource="http://purl.org/dc/dcmitype/StillImage"/>
    <dc:title/>
   </cc:Work>
  </rdf:RDF>
 </metadata>
 <g transform="translate(-45.055 -91.079)">
  <g transform="matrix(.26458 0 0 .26458 45.055 91.079)" style="fill:none">
   <path d="m24 0c-13.253 0-24 11.017-24 24.608 0 10.872 6.8768 20.096 16.413 23.35 1.1995 0.2278 1.6398-0.5338 1.6398-1.1838 0-0.5867-0.0222-2.5252-0.0326-4.5814-6.6769 1.4886-8.0858-2.9034-8.0858-2.9034-1.0918-2.8443-2.6648-3.6006-2.6648-3.6006-2.1775-1.5272 0.16414-1.4959 0.16414-1.4959 2.41 0.1736 3.679 2.5359 3.679 2.5359 2.1406 3.7619 5.6146 2.6743 6.9841 2.0456 0.2154-1.5905 0.8374-2.676 1.5238-3.2905-5.3308-0.6223-10.935-2.7323-10.935-12.161 0-2.6866 0.93755-4.8818 2.4728-6.605-0.2492-0.6198-1.0707-3.1227 0.2325-6.5122 0 0 2.0154-0.66133 6.6018 2.5224 1.9144-0.5452 3.9676-0.8187 6.0072-0.828 2.0396 0.0093 4.0944 0.2828 6.0124 0.828 4.5808-3.1837 6.5934-2.5224 6.5934-2.5224 1.3063 3.3895 0.4845 5.8924 0.2353 6.5122 1.5388 1.7232 2.47 3.9184 2.47 6.605 0 9.4514-5.6145 11.532-10.959 12.142 0.8608 0.7636 1.6279 2.2612 1.6279 4.557 0 3.2925-0.0278 5.9424-0.0278 6.7529 0 0.6549 0.432 1.4222 1.6485 1.1805 9.5309-3.2574 16.399-12.478 16.399-23.347 0-13.591-10.745-24.608-24-24.608z" style="fill:#0050a0"/>
   <path d="m9.1608 35.162c-0.05276 0.121-0.24 0.1573-0.41058 0.0742-0.17375-0.0795-0.27134-0.2445-0.21501-0.3659 0.05157-0.1247 0.23921-0.1594 0.41256-0.0759 0.17415 0.0795 0.27333 0.2461 0.21303 0.3676z" style="fill:#0050a0"/>
   <path d="m10.131 36.263c-0.1143 0.1077-0.33762 0.0577-0.48915-0.1126-0.1567-0.1698-0.18605-0.397-0.07022-0.5063 0.11782-0.1078 0.33441-0.0573 0.49147 0.1125 0.1567 0.1719 0.1873 0.3975 0.0679 0.5064z" style="fill:#0050a0"/>
   <path d="m11.076 37.666c-0.1468 0.1037-0.3868 0.0065-0.5351-0.2102-0.1468-0.2167-0.1468-0.4765 0.0031-0.5806 0.1488-0.1041 0.3852-0.0105 0.5356 0.2046 0.1464 0.2203 0.1464 0.4801-0.0036 0.5862z" style="fill:#0050a0"/>
   <path d="m12.37 39.022c-0.1313 0.1473-0.4109 0.1078-0.6156-0.0932-0.2095-0.1965-0.2678-0.4753-0.1361-0.6225 0.1329-0.1477 0.4141-0.1061 0.6204 0.0932 0.2079 0.1961 0.2714 0.4769 0.1313 0.6225z" style="fill:#0050a0"/>
   <path d="m14.155 39.809c-0.0579 0.1909-0.3272 0.2776-0.5986 0.1965-0.2709-0.0835-0.4482-0.307-0.3935-0.4999 0.0563-0.192 0.3269-0.2824 0.6002-0.1957 0.2705 0.0832 0.4483 0.3051 0.3919 0.4991z" style="fill:#0050a0"/>
   <path d="m16.115 39.955c0.0067 0.2009-0.2233 0.3676-0.5082 0.3712-0.2864 0.0065-0.5181-0.1561-0.5212-0.3538 0-0.203 0.2249-0.368 0.5113-0.3728 0.2848-0.0057 0.5181 0.1557 0.5181 0.3554z" style="fill:#0050a0"/>
   <path d="m17.94 39.639c0.0341 0.1961-0.1638 0.3974-0.4467 0.4511-0.2781 0.0516-0.5355-0.0694-0.5708-0.2639-0.0345-0.2009 0.167-0.4023 0.4447-0.4543 0.2832-0.05 0.5367 0.0678 0.5728 0.2671z" style="fill:#0050a0"/>
  </g>
 </g>
</svg>
