<svg xmlns="http://www.w3.org/2000/svg" viewBox="0 0 871.76515 537.14"><defs><style>.cls-1,.cls-10,.cls-11,.cls-12,.cls-13,.cls-14,.cls-15,.cls-16,.cls-2,.cls-3,.cls-4,.cls-5,.cls-6,.cls-7,.cls-8,.cls-9{fill:none;}.cls-10,.cls-11,.cls-2,.cls-3{stroke:#59f;}.cls-11,.cls-12,.cls-13,.cls-14,.cls-15,.cls-16,.cls-3,.cls-4,.cls-5,.cls-6,.cls-7,.cls-8,.cls-9{stroke-linecap:round;stroke-linejoin:round;}.cls-12,.cls-4{stroke:#fca;}.cls-4,.cls-6,.cls-8,.cls-9{stroke-width:1.5px;}.cls-5{stroke:#f95;}.cls-16,.cls-6{stroke:#f59;}.cls-7{stroke:#fac;}.cls-8{stroke:#37c8ab;}.cls-9{stroke:#afe9dd;}.cls-10,.cls-11{stroke-width:2.5px;}.cls-12,.cls-16{stroke-width:2px;}.cls-13{stroke:#f60;}.cls-13,.cls-14,.cls-15{stroke-width:3px;}.cls-14{stroke:#34b29a;}.cls-15{stroke:#f06;}</style></defs><title>lines-export</title><g id="Warstwa_2" data-name="Warstwa 2"><g id="lines"><path class="cls-1" d="M5.31962,0H866.44554c2.93794,0,5.31962,2.70281,5.31962,6.03689V529.60312c0,3.33408-2.38167,6.03688-5.31962,6.03688H5.31962C2.38167,535.64,0,532.9372,0,529.60312V6.03689C0,2.70281,2.38167,0,5.31962,0Z"/><g id="lvl1"><g id="lines-left"><path class="cls-2" d="M297.456,218.75812l-48.74152-48.74152H157.28478"/><path class="cls-3" d="M157.28478,170.02113a3.13676,3.13676,0,1,1-3.13676-3.13676A3.13676,3.13676,0,0,1,157.28478,170.02113Z"/><path class="cls-2" d="M220.22035,169.50009l-32.43242-32.43243H162.20628"/><path class="cls-3" d="M162.20764,137.0586a3.13676,3.13676,0,1,1-3.13676-3.13676A3.13676,3.13676,0,0,1,162.20764,137.0586Z"/><path class="cls-2" d="M296.59849,297.87847H169.93976l-51.52156-51.52155H91.49946"/><path class="cls-3" d="M91.49679,246.36758a3.69429,3.69429,0,1,1-3.69429-3.69428A3.69429,3.69429,0,0,1,91.49679,246.36758Z"/><path class="cls-2" d="M234.86866,298.02788l-.17828-40.222H194.85522"/><path class="cls-3" d="M194.85581,257.80586a3.69429,3.69429,0,1,1-3.69429-3.69428A3.69429,3.69429,0,0,1,194.85581,257.80586Z"/><path class="cls-2" d="M156.03347,342.98317H181.7054l42.23914-44.97664"/><path class="cls-3" d="M156.03347,342.98317a3.69429,3.69429,0,0,1-3.69429,3.69429h0a3.69429,3.69429,0,0,1-3.69429-3.69429h0a3.69429,3.69429,0,0,1,7.38858,0Z"/><path class="cls-2" d="M256.74666,419.85068l29.2827,29.37075L263.299,473.37813"/><path class="cls-3" d="M264.45755,476.40966a3.69429,3.69429,0,1,1-3.69429-3.69429A3.69429,3.69429,0,0,1,264.45755,476.40966Z"/><path class="cls-2" d="M222.47455,443.78378l-30.93161-30.93162H155.26439"/><path class="cls-3" d="M155.26306,412.85218a3.69429,3.69429,0,0,1-3.69429,3.69429h0a3.69429,3.69429,0,0,1-3.69429-3.69429h0a3.69429,3.69429,0,0,1,3.69429-3.69429h0a3.69429,3.69429,0,0,1,3.69429,3.69429Z"/><path class="cls-2" d="M310.09849,361.66667l-74.969,81.7596H169.89025L139.01515,477.125h-18"/><path class="cls-3" d="M121.01515,477.125a3.69429,3.69429,0,0,1-3.69429,3.69429h0a3.69429,3.69429,0,0,1-3.69429-3.69429h0a3.69429,3.69429,0,0,1,3.69429-3.69429h0a3.69429,3.69429,0,0,1,3.69429,3.69429Z"/></g><g id="lines-right"><path class="cls-4" d="M587.22349,257.45645C694.26515,230.875,699.76515,124.8698,657.73986,99.89489A30.06575,30.06575,0,0,0,616.508,110.682a24.10926,24.10926,0,0,0,8.6297,32.98546,19.28741,19.28741,0,0,0,26.38837-6.90376,15.42992,15.42992,0,0,0-5.523-21.1107,12.34394,12.34394,0,0,0-16.88856,4.41841,9.87515,9.87515,0,0,0,3.53473,13.51085,7.90012,7.90012,0,0,0,10.80868-2.82778,6.3201,6.3201,0,0,0-2.26222-8.64694,5.05608,5.05608,0,0,0-6.91755,1.80978"/><path class="cls-5" d="M571.59849,259.45645s47.74239-4.026,72.57953-23.49382,61.33464-39.42761,78.92047-16.80117c22,28.30585-17.16667,48.83333-34.83333,32.5"/><path class="cls-6" d="M578.51515,281.83333c14.27081-7.786,41.56355-8.04545,52.58572-8.45432,57.39369-2.129,67.34835,59.393,129.41428,57.73774,20.67757-.55145,37.959-15.59,38.60531-36.26482a29.96269,29.96269,0,0,0-29.01186-30.88425,23.97015,23.97015,0,0,0-24.7074,23.20949,19.17612,19.17612,0,0,0,18.56759,19.76592A15.34089,15.34089,0,0,0,779.78153,292.089a12.27272,12.27272,0,0,0-11.88326-12.65019,9.81817,9.81817,0,0,0-10.12015,9.50661,7.85454,7.85454,0,0,0,7.60528,8.09612,6.28363,6.28363,0,0,0,6.4769-6.08423"/><path class="cls-7" d="M586.30682,278.74808s27.625-7.74808,55.66667-4.68122c15.4437,1.689,48.79167,9.92795,31.45833,62.19567,0,0-57-3.93439-49.5-38.60105"/><path class="cls-8" d="M547.76512,399.14468c35.55431-2.31566,114.56794,7.2053,136.16664,42.70494,6.56477,10.78986,3.75026,24.54837-7.19778,31.26736a19.2282,19.2282,0,0,1-25.95885-5.54861,14.184,14.184,0,0,1,4.60658-20.01111,12.306,12.306,0,0,1,16.61366,3.55111,9.07779,9.07779,0,0,1-2.94821,12.80711,7.87587,7.87587,0,0,1-10.63274-2.27271,5.80979,5.80979,0,0,1,1.88685-8.19655,5.04056,5.04056,0,0,1,6.805,1.45453,3.71826,3.71826,0,0,1-1.20759,5.24579"/><path class="cls-9" d="M550.43961,398.44908s24.71257,1.53688,51.09554,3.48018c27.585,2.03184,21.30478,54.61359-13.13419,40.52326s1.92646-36.51657,8.557-19.73118"/></g></g><g id="lvl2"><g id="lines-2-left"><path class="cls-10" d="M248.71449,170.01661H157.28478"/><path class="cls-11" d="M157.28478,170.02113a3.13676,3.13676,0,1,1-3.13676-3.13676A3.13676,3.13676,0,0,1,157.28478,170.02113Z"/><path class="cls-10" d="M431.88258,535.64V297.87847H376.57635l-175.1333-175.1333,30.0721-.24517"/><path class="cls-11" d="M238.84586,122.5a3.69429,3.69429,0,0,1-3.69429,3.69429h0A3.69429,3.69429,0,0,1,231.45728,122.5h0a3.69429,3.69429,0,0,1,3.69429-3.69429h0A3.69429,3.69429,0,0,1,238.84586,122.5Z"/><path class="cls-10" d="M220.22035,170.01661,187.78793,202.449H171.38879"/><path class="cls-11" d="M171.39015,202.45809a3.13676,3.13676,0,1,0-3.13676,3.13676A3.13676,3.13676,0,0,0,171.39015,202.45809Z"/><path class="cls-10" d="M169.89025,443.42627,139.01515,477.125h-18"/><path class="cls-11" d="M121.01515,477.125a3.69429,3.69429,0,0,1-3.69429,3.69429h0a3.69429,3.69429,0,0,1-3.69429-3.69429h0a3.69429,3.69429,0,0,1,3.69429-3.69429h0a3.69429,3.69429,0,0,1,3.69429,3.69429Z"/><path class="cls-10" d="M431.88258,535.64V297.87847H368.58872L235.12948,443.42627H80.76515"/><path class="cls-11" d="M80.76515,443.42627a3.69429,3.69429,0,0,1-3.69429,3.69429h0a3.69429,3.69429,0,0,1-3.69429-3.69429h0a3.69429,3.69429,0,0,1,3.69429-3.69429h0a3.69429,3.69429,0,0,1,3.69429,3.69429Z"/><path class="cls-11" d="M105.26515,443.42627V413.80915"/><path class="cls-11" d="M108.95944,410.11486a3.69429,3.69429,0,0,1-3.69429,3.69429h0a3.69429,3.69429,0,0,1-3.69429-3.69429h0a3.69429,3.69429,0,0,1,3.69429-3.69429h0a3.69429,3.69429,0,0,1,3.69429,3.69429Z"/><path class="cls-10" d="M169.93976,297.87847l-51.52156-51.52155H91.49946"/><path class="cls-11" d="M91.49679,246.36758a3.69429,3.69429,0,1,1-3.69429-3.69428A3.69429,3.69429,0,0,1,91.49679,246.36758Z"/><path class="cls-10" d="M431.88258,535.64V297.87847H44.26515"/><path class="cls-11" d="M44.26515,297.87847a3.69429,3.69429,0,1,1-3.69429-3.69428A3.69429,3.69429,0,0,1,44.26515,297.87847Z"/><path class="cls-11" d="M57.01515,325.5a3.69429,3.69429,0,1,1-3.69429-3.69428A3.69429,3.69429,0,0,1,57.01515,325.5Z"/><path class="cls-10" d="M74.51515,297.87847V325.5h-17.5"/></g><g id="lines-2-right"><path class="cls-12" d="M587.22349,257.4999C694.01515,232,699.76515,124.91325,657.73986,99.93834A30.06575,30.06575,0,0,0,616.508,110.72546a24.10926,24.10926,0,0,0,8.6297,32.98546,19.28741,19.28741,0,0,0,26.38837-6.90376,15.42992,15.42992,0,0,0-5.523-21.1107,12.34394,12.34394,0,0,0-16.88856,4.41841,9.87515,9.87515,0,0,0,3.53473,13.51085,7.90012,7.90012,0,0,0,10.80868-2.82778,6.3201,6.3201,0,0,0-2.26222-8.64694,5.05608,5.05608,0,0,0-6.91755,1.80978"/><path class="cls-13" d="M439.88258,535.64V478.5C435,270.57633,581.97349,257.4999,581.97349,257.4999s41.2406-7.25257,62.22917-20.5624c6.83333-4.33333,47.1875-25.48259,61.5625-66.48259l1.2259-3.35773c7.79788-18.7821,25.26742-37.38855,52.5338-36.434,18.53325.64879,34.38273,13.08854,35.44324,31.6028a28.54127,28.54127,0,0,1-26.86238,30.12676,24.26008,24.26008,0,0,1-25.60774-22.833A20.62107,20.62107,0,0,1,761.906,147.79309a17.52791,17.52791,0,0,1,18.50159,16.49686,14.89872,14.89872,0,0,1-14.02233,15.72635,12.66392,12.66392,0,0,1-13.3674-11.919A10.76433,10.76433,0,0,1,763.149,156.735a9.14968,9.14968,0,0,1,9.65795,8.61146,7.77723,7.77723,0,0,1-7.31974,8.20926,6.61064,6.61064,0,0,1-6.97787-6.22178"/><path class="cls-14" d="M439.88258,535.64V486.9997l.5076-8.87986c12.50937-76.84737,91.125-79.30274,91.125-79.30274-13.25-33.25,4.5983-47.19519,4.5983-47.19519,20.25,12.75,5.4017,47.19519,5.4017,47.19519s35.35968,1.79176,50.9375,2.74539c20.18047,1.2354,47.34938,4.99991,67.11487,12.727h0c15.52034,6.45823,33.63093,3.063,42.98529-11.24969a28.3552,28.3552,0,0,0-8.22267-39.24821,24.10192,24.10192,0,0,0-33.361,6.98927,20.48663,20.48663,0,0,0,5.94088,28.35683,17.41363,17.41363,0,0,0,24.10331-5.04975,14.80159,14.80159,0,0,0-4.29229-20.48781,12.58135,12.58135,0,0,0-17.41464,3.64844,10.69415,10.69415,0,0,0,3.10118,14.80244,9.09,9.09,0,0,0,12.58208-2.636,7.72652,7.72652,0,0,0-2.2406-10.69476,6.56754,6.56754,0,0,0-9.09055,1.90451"/><path class="cls-8" d="M547.76512,399.14468c35.55431-2.31566,114.56794,7.2053,136.16664,42.70494,6.56477,10.78986,3.75026,24.54837-7.19778,31.26736a19.2282,19.2282,0,0,1-25.95885-5.54861,14.184,14.184,0,0,1,4.60658-20.01111,12.306,12.306,0,0,1,16.61366,3.55111,9.07779,9.07779,0,0,1-2.94821,12.80711,7.87587,7.87587,0,0,1-10.63274-2.27271,5.80979,5.80979,0,0,1,1.88685-8.19655,5.04056,5.04056,0,0,1,6.805,1.45453,3.71826,3.71826,0,0,1-1.20759,5.24579"/><path class="cls-15" d="M439.88258,535.64l-.119-48.64c0-174.66667,135.09744-205.05075,147.45992-208.5s25.375-5.66667,48.625-4.43315c11.45195.60758,32.93467,1.78173,53.08333,25.13806,6.39224,7.40988,15.29874,26.34227,26.33333,35.83333,24.94743,21.45776,49.01009,23.94629,69.81609,13.69769l-.68031.3657a42.15074,42.15074,0,0,1,40.28719,1.47107c17.15166,10.30408,22.35906,33.13338,11.63106,50.99066-9.1188,15.17869-28.32959,20.38331-42.9085,11.62483-12.39207-7.4447-16.15442-23.93887-8.40344-36.84076,6.58833-10.9666,20.46813-14.72694,31.00139-8.39894,8.95327,5.3788,11.67157,17.29583,6.07149,26.61745-4.76007,7.92337-14.78822,10.64021-22.39851,6.06824-6.46874-3.88618-8.43271-12.49624-4.38665-19.2311a11.86039,11.86039,0,0,1,16.18292-4.3843,10.08133,10.08133,0,0,1,3.16935,13.89447"/><path class="cls-16" d="M578.51515,281.83333c14.27081-7.786,41.56355-8.04545,52.58572-8.45432,57.39369-2.129,67.34835,59.393,129.41428,57.73774,20.67757-.55145,37.959-15.59,38.60531-36.26482a29.96269,29.96269,0,0,0-29.01186-30.88425,23.97015,23.97015,0,0,0-24.7074,23.20949,19.17612,19.17612,0,0,0,18.56759,19.76592A15.34089,15.34089,0,0,0,779.78153,292.089a12.27272,12.27272,0,0,0-11.88326-12.65019,9.81817,9.81817,0,0,0-10.12015,9.50661,7.85454,7.85454,0,0,0,7.60528,8.09612,6.28363,6.28363,0,0,0,6.4769-6.08423"/></g></g></g></g></svg>