<?xml version="1.0" encoding="UTF-8" standalone="no"?>
<svg
   xmlns:dc="http://purl.org/dc/elements/1.1/"
   xmlns:cc="http://creativecommons.org/ns#"
   xmlns:rdf="http://www.w3.org/1999/02/22-rdf-syntax-ns#"
   xmlns:svg="http://www.w3.org/2000/svg"
   xmlns="http://www.w3.org/2000/svg"
   id="svg1163"
   version="1.1"
   viewBox="0 0 210 297"
   height="297mm"
   width="210mm">
  <defs
     id="defs1157" />
  <metadata
     id="metadata1160">
    <rdf:RDF>
      <cc:Work
         rdf:about="">
        <dc:format>image/svg+xml</dc:format>
        <dc:type
           rdf:resource="http://purl.org/dc/dcmitype/StillImage" />
        <dc:title></dc:title>
      </cc:Work>
    </rdf:RDF>
  </metadata>
  <g
     id="layer1">
    <g
       id="g1089"
       transform="translate(24.914455,145.15063)">
      <rect
         style="opacity:1;fill:none;fill-opacity:1;fill-rule:nonzero;stroke:none;stroke-width:0.93910849;stroke-linecap:round;stroke-linejoin:round;stroke-miterlimit:4;stroke-dasharray:none;stroke-opacity:1;paint-order:markers stroke fill"
         id="rect967"
         width="240.89725"
         height="130.42752"
         x="-42.175579"
         y="-145.0638"
         ry="1.4699826" />
      <g
         id="g994">
        <g
           style="stroke:#5599ff;stroke-width:1"
           id="g953">
          <path
             style="fill:none;stroke:#5599ff;stroke-width:1;stroke-linecap:butt;stroke-linejoin:miter;stroke-opacity:1"
             d="M 39.823159,-81.45365 H -0.26726951 L -19.577493,-100.76387 h -10.089424"
             id="path901" />
          <path
             style="opacity:1;fill:none;fill-opacity:1;fill-rule:nonzero;stroke:#5599ff;stroke-width:1;stroke-linecap:round;stroke-linejoin:round;stroke-miterlimit:4;stroke-dasharray:none;stroke-opacity:1;paint-order:markers stroke fill"
             d="m -29.666917,-100.76387 a 1.3845508,1.3845508 0 0 1 -1.38455,1.384554 1.3845508,1.3845508 0 0 1 -1.384551,-1.384554 1.3845508,1.3845508 0 0 1 1.384551,-1.38455 1.3845508,1.3845508 0 0 1 1.38455,1.38455 z"
             id="path917" />
        </g>
        <g
           style="stroke:#5599ff;stroke-width:1"
           id="g937">
          <path
             style="fill:none;stroke:#5599ff;stroke-width:1;stroke-linecap:butt;stroke-linejoin:miter;stroke-opacity:1"
             d="m 29.082264,-50.814271 10.974755,11.008164 -8.519215,9.053755"
             id="path915" />
          <path
             style="opacity:1;fill:none;fill-opacity:1;fill-rule:nonzero;stroke:#5599ff;stroke-width:1;stroke-linecap:round;stroke-linejoin:round;stroke-miterlimit:4;stroke-dasharray:none;stroke-opacity:1;paint-order:markers stroke fill"
             d="m 31.972117,-29.616457 a 1.3845508,1.3845508 0 0 1 -1.38455,1.38455 1.3845508,1.3845508 0 0 1 -1.384551,-1.38455 1.3845508,1.3845508 0 0 1 1.384551,-1.38455 1.3845508,1.3845508 0 0 1 1.38455,1.38455 z"
             id="path934" />
        </g>
        <g
           style="stroke:#5599ff;stroke-width:1"
           id="g961">
          <path
             style="fill:none;stroke:#5599ff;stroke-width:1;stroke-linecap:butt;stroke-linejoin:miter;stroke-opacity:1"
             d="M 43.164029,-91.357206 21.648831,-112.87241 h -40.357698"
             id="path903" />
          <path
             id="path922"
             d="m -18.708867,-112.87241 a 1.3845508,1.3845508 0 0 1 -1.38455,1.38455 1.3845508,1.3845508 0 0 1 -1.384551,-1.38455 1.3845508,1.3845508 0 0 1 1.384551,-1.38455 1.3845508,1.3845508 0 0 1 1.38455,1.38455 z"
             style="opacity:1;fill:none;fill-opacity:1;fill-rule:nonzero;stroke:#5599ff;stroke-width:1;stroke-linecap:round;stroke-linejoin:round;stroke-miterlimit:4;stroke-dasharray:none;stroke-opacity:1;paint-order:markers stroke fill" />
        </g>
        <g
           style="stroke:#5599ff;stroke-width:1"
           id="g965">
          <path
             style="fill:none;stroke:#5599ff;stroke-width:1;stroke-linecap:butt;stroke-linejoin:miter;stroke-opacity:1"
             d="M 9.0714284,-113.10417 -5.2444197,-127.42002 H -16.536458"
             id="path909" />
          <path
             style="opacity:1;fill:none;fill-opacity:1;fill-rule:nonzero;stroke:#5599ff;stroke-width:1;stroke-linecap:round;stroke-linejoin:round;stroke-miterlimit:4;stroke-dasharray:none;stroke-opacity:1;paint-order:markers stroke fill"
             d="m -16.536458,-127.42002 a 1.3845508,1.3845508 0 0 1 -1.38455,1.38455 1.3845508,1.3845508 0 0 1 -1.384551,-1.38455 1.3845508,1.3845508 0 0 1 1.384551,-1.38455 1.3845508,1.3845508 0 0 1 1.38455,1.38455 z"
             id="path924" />
        </g>
        <g
           style="stroke:#5599ff;stroke-width:1"
           id="g957">
          <path
             style="fill:none;stroke:#5599ff;stroke-width:1;stroke-linecap:butt;stroke-linejoin:miter;stroke-opacity:1"
             d="m 24.068305,-81.398056 -0.06682,-15.075157 H 9.0714284"
             id="path907" />
          <path
             style="opacity:1;fill:none;fill-opacity:1;fill-rule:nonzero;stroke:#5599ff;stroke-width:1;stroke-linecap:round;stroke-linejoin:round;stroke-miterlimit:4;stroke-dasharray:none;stroke-opacity:1;paint-order:markers stroke fill"
             d="m 9.0714284,-96.473213 a 1.3845508,1.3845508 0 0 1 -1.38455,1.38455 1.3845508,1.3845508 0 0 1 -1.384551,-1.38455 1.3845508,1.3845508 0 0 1 1.384551,-1.38455 1.3845508,1.3845508 0 0 1 1.38455,1.38455 z"
             id="path926" />
        </g>
        <g
           style="stroke:#5599ff;stroke-width:1"
           id="g949">
          <path
             style="fill:none;stroke:#5599ff;stroke-width:1;stroke-linecap:butt;stroke-linejoin:miter;stroke-opacity:1"
             d="M -5.4790246,-64.548853 H 4.1426777 L 19.973649,-81.405708"
             id="path911" />
          <path
             id="path928"
             d="m -5.4790246,-64.548853 a 1.3845508,1.3845508 0 0 1 -1.38455,1.38455 1.3845508,1.3845508 0 0 1 -1.384551,-1.38455 1.3845508,1.3845508 0 0 1 1.384551,-1.38455 1.3845508,1.3845508 0 0 1 1.38455,1.38455 z"
             style="opacity:1;fill:none;fill-opacity:1;fill-rule:nonzero;stroke:#5599ff;stroke-width:1;stroke-linecap:round;stroke-linejoin:round;stroke-miterlimit:4;stroke-dasharray:none;stroke-opacity:1;paint-order:markers stroke fill" />
        </g>
        <g
           style="stroke:#5599ff;stroke-width:1"
           id="g945">
          <path
             style="fill:none;stroke:#5599ff;stroke-width:1;stroke-linecap:butt;stroke-linejoin:miter;stroke-opacity:1"
             d="M 16.236624,-41.844037 4.6438079,-53.436853 H -8.953529"
             id="path913" />
          <path
             style="opacity:1;fill:none;fill-opacity:1;fill-rule:nonzero;stroke:#5599ff;stroke-width:1;stroke-linecap:round;stroke-linejoin:round;stroke-miterlimit:4;stroke-dasharray:none;stroke-opacity:1;paint-order:markers stroke fill"
             d="m -8.953529,-53.436853 a 1.3845508,1.3845508 0 0 1 -1.38455,1.38455 1.3845508,1.3845508 0 0 1 -1.384551,-1.38455 1.3845508,1.3845508 0 0 1 1.384551,-1.38455 1.3845508,1.3845508 0 0 1 1.38455,1.38455 z"
             id="path930" />
        </g>
        <g
           style="stroke:#5599ff;stroke-width:1"
           id="g941">
          <path
             style="fill:none;stroke:#5599ff;stroke-width:1;stroke-linecap:butt;stroke-linejoin:miter;stroke-opacity:1"
             d="M 43.030393,-66.03193 20.980657,-41.977672 H -10.289877"
             id="path905" />
          <path
             id="path932"
             d="m -10.289877,-41.977672 a 1.3845508,1.3845508 0 0 1 -1.38455,1.38455 1.3845508,1.3845508 0 0 1 -1.384551,-1.38455 1.3845508,1.3845508 0 0 1 1.384551,-1.38455 1.3845508,1.3845508 0 0 1 1.38455,1.38455 z"
             style="opacity:1;fill:none;fill-opacity:1;fill-rule:nonzero;stroke:#5599ff;stroke-width:1;stroke-linecap:round;stroke-linejoin:round;stroke-miterlimit:4;stroke-dasharray:none;stroke-opacity:1;paint-order:markers stroke fill" />
        </g>
      </g>
      <g
         id="g1040"
         transform="matrix(0.90760164,0,0,1,13.780324,11.717262)">
        <g
           transform="translate(-330.67827,-25.298945)"
           id="g1020">
          <path
             style="fill:none;stroke:#ff5599;stroke-width:1;stroke-linecap:round;stroke-linejoin:round;stroke-miterlimit:4;stroke-dasharray:none;stroke-opacity:1"
             d="m 439.20833,-67.18006 c 3.77976,1.322917 12.18972,2.173365 21.73364,-1.228423 9.54389,-3.401785 18.19009,-0.614209 24.80467,6.567336 6.61459,7.181549 24.04874,9.780136 32.4587,6.472844 8.40997,-3.307292 -8.69344,-13.890625 -10.67781,-5.480656"
             id="path996" />
          <path
             style="fill:none;stroke:#ffaacc;stroke-width:1;stroke-linecap:round;stroke-linejoin:round;stroke-miterlimit:4;stroke-dasharray:none;stroke-opacity:1"
             d="m 439.51543,-66.872955 c 0,0 6.16574,3.567152 12.92206,1.582777 6.75632,-1.984375 25.13542,-9.449406 30.99406,11.433778 5.85862,20.883187 -13.32367,7.087055 -7.08707,4.535715"
             id="path998" />
          <path
             style="fill:none;stroke:#ff0066;stroke-width:1.5;stroke-linecap:round;stroke-linejoin:round;stroke-miterlimit:4;stroke-dasharray:none;stroke-opacity:1"
             d="m 437.14093,-67.212486 c 0,0 7.56692,6.057576 29.41125,-2.763949 21.12333,-8.530357 25.86775,20.71782 40.98681,31.49014 15.11905,10.772322 16.44197,-0.09449 16.44197,-0.09449"
             id="path1002" />
        </g>
        <g
           id="g1045"
           transform="translate(-1.7008929,14.93006)">
          <path
             id="path1004"
             d="m 108.53004,-114.96859 c 0,0 15.96951,1.79539 21.82813,-9.54389 5.85864,-11.33929 16.34749,-12.56771 23.24555,-10.20536 6.89806,2.36235 11.43378,10.58333 18.89881,4.25223 4.72468,-3.77976 6.84489,-6.18346 7.27605,-6.52009"
             style="fill:none;stroke:#ff9955;stroke-width:1;stroke-linecap:round;stroke-linejoin:round;stroke-miterlimit:4;stroke-dasharray:none;stroke-opacity:1" />
          <path
             id="path1006"
             d="m 108.53004,-115.65367 c 0,0 19.18229,6.80357 25.70239,-18.52083 6.5201,-25.3244 -9.92187,-24.00149 -11.90625,-16.72545 -1.98437,7.27605 3.1183,10.48884 6.04761,8.69346"
             style="fill:none;stroke:#ffccaa;stroke-width:1;stroke-linecap:round;stroke-linejoin:round;stroke-miterlimit:4;stroke-dasharray:none;stroke-opacity:1" />
          <path
             id="path1000"
             d="m 108.53004,-114.96859 c 0,0 17.19792,1.51191 22.86757,-10.39434 5.66965,-11.90625 16.25298,-23.62351 29.10417,-20.78869 12.85118,2.83482 23.6235,11.1503 34.58482,4.15774"
             style="fill:none;stroke:#ff6600;stroke-width:1.5;stroke-linecap:round;stroke-linejoin:round;stroke-miterlimit:4;stroke-dasharray:none;stroke-opacity:1" />
        </g>
        <g
           transform="translate(-328.03244,-35.315314)"
           id="g1024">
          <path
             style="fill:none;stroke:#afe9dd;stroke-width:1;stroke-linecap:round;stroke-linejoin:round;stroke-miterlimit:4;stroke-dasharray:none;stroke-opacity:1"
             d="m 432.17483,-30.271537 c 0,0 10.4235,6.280834 23.51971,2.004523 13.09621,-4.276312 13.49711,27.79602961 23.787,27.79602961"
             id="path1008" />
          <path
             style="fill:none;stroke:#37c8ab;stroke-width:1.5;stroke-linecap:round;stroke-linejoin:round;stroke-miterlimit:4;stroke-dasharray:none;stroke-opacity:1"
             d="m 432.17483,-30.271537 c 0,0 12.51416,6.275257 21.68006,2.684484 9.16594,-3.590775 40.82145,-13.418156 38.08111,0.188986"
             id="path1010" />
        </g>
      </g>
    </g>
  </g>
</svg>
